<?xml version="1.0" encoding="UTF-8"?>
<svg version="1.1" xmlns="http://www.w3.org/2000/svg" width="533" height="533">
<path d="M0 0 C175.89 0 351.78 0 533 0 C533 175.89 533 351.78 533 533 C357.11 533 181.22 533 0 533 C0 357.11 0 181.22 0 0 Z " fill="#5E1DBE" transform="translate(0,0)"/>
<path d="M0 0 C2.51921841 0.8775287 4.29594169 2.0790716 6.44677734 3.65649414 C7.63883789 4.52467773 7.63883789 4.52467773 8.85498047 5.41040039 C10.08571289 6.32112305 10.08571289 6.32112305 11.34130859 7.25024414 C12.58944336 8.1609668 12.58944336 8.1609668 13.86279297 9.09008789 C19.94505574 13.54149129 19.94505574 13.54149129 21.15380859 14.75024414 C20.77107633 18.44998938 20.27193008 22.0840737 19.62255859 25.74633789 C18.84718299 31.19587039 19.0094589 36.69565544 19.02880859 42.18774414 C19.02494141 43.28151367 19.02107422 44.3752832 19.01708984 45.50219727 C19.02412795 51.34734063 19.26901934 56.97102544 20.15380859 62.75024414 C20.81380859 62.75024414 21.47380859 62.75024414 22.15380859 62.75024414 C22.77255859 64.29131836 22.77255859 64.29131836 23.40380859 65.86352539 C27.04685182 74.70052574 31.01990084 82.32741017 37.15380859 89.75024414 C38.16894531 91.04381836 38.16894531 91.04381836 39.20458984 92.36352539 C47.15084754 101.93680477 57.5006317 107.72382653 69.15380859 111.75024414 C70.18505859 112.14211914 71.21630859 112.53399414 72.27880859 112.93774414 C92.14302546 118.55154456 112.96835601 114.31155226 130.98583984 105.34008789 C146.1679715 96.75680401 158.4131966 82.25450363 164.15380859 65.75024414 C164.78868685 62.99495783 165.29106155 60.2223816 165.77880859 57.43774414 C165.91287109 56.69717773 166.04693359 55.95661133 166.18505859 55.19360352 C166.51267843 53.3799937 166.83389354 51.5652289 167.15380859 49.75024414 C174.02880859 47.75024414 174.02880859 47.75024414 175.15380859 47.75024414 C175.30940872 58.53138337 175.45753878 69.31259897 175.59677219 80.09396267 C175.66168214 85.10306256 175.72892941 90.11210575 175.80200195 95.12109375 C176.3577861 133.45930395 176.3577861 133.45930395 175.86865234 148.28540039 C175.84452774 149.2062291 175.82040314 150.1270578 175.79554749 151.07579041 C174.96585744 169.89649122 166.38768556 183.99962673 153.15380859 196.75024414 C104.14773857 241.25892166 25.38761237 240.76388731 -36.70556641 238.06665039 C-40.80760388 237.85290951 -44.79513439 237.42353434 -48.84619141 236.75024414 C-48.84619141 236.09024414 -48.84619141 235.43024414 -48.84619141 234.75024414 C-49.72662109 234.7618457 -50.60705078 234.77344727 -51.51416016 234.78540039 C-52.67560547 234.79442383 -53.83705078 234.80344727 -55.03369141 234.81274414 C-56.18224609 234.8243457 -57.33080078 234.83594727 -58.51416016 234.84790039 C-61.43919727 234.76217246 -64.00935432 234.42873437 -66.84619141 233.75024414 C-66.84619141 233.09024414 -66.84619141 232.43024414 -66.84619141 231.75024414 C-68.76818359 231.56461914 -68.76818359 231.56461914 -70.72900391 231.37524414 C-75.80269883 230.81083781 -80.73650956 229.83523798 -85.72119141 228.75024414 C-86.98189453 228.4834082 -86.98189453 228.4834082 -88.26806641 228.21118164 C-91.53347727 227.51219593 -94.67439615 226.80750922 -97.84619141 225.75024414 C-97.84619141 225.09024414 -97.84619141 224.43024414 -97.84619141 223.75024414 C-99.04244141 223.70899414 -100.23869141 223.66774414 -101.47119141 223.62524414 C-108.44887159 222.86464393 -114.55539306 219.69581796 -120.84619141 216.75024414 C-121.69439453 216.36094727 -122.54259766 215.97165039 -123.41650391 215.57055664 C-126.79001748 213.96471439 -129.24083209 212.36856545 -131.84619141 209.75024414 C-133.30210695 208.69651521 -134.78326468 207.67706429 -136.28369141 206.68774414 C-137.04552734 206.18114258 -137.80736328 205.67454102 -138.59228516 205.15258789 C-140.79513995 203.72372603 -140.79513995 203.72372603 -143.06884766 202.69165039 C-144.84619141 201.75024414 -144.84619141 201.75024414 -145.84619141 199.75024414 C-146.56806641 199.33774414 -147.28994141 198.92524414 -148.03369141 198.50024414 C-151.5834577 196.29150067 -154.02195092 193.83720467 -156.84619141 190.75024414 C-156.84619141 190.09024414 -156.84619141 189.43024414 -156.84619141 188.75024414 C-157.83619141 188.42024414 -158.82619141 188.09024414 -159.84619141 187.75024414 C-169.0841769 176.56741959 -172.05005616 163.87605426 -172.49853516 149.69946289 C-172.537202 148.56361252 -172.57586884 147.42776215 -172.6157074 146.25749207 C-173.14663348 127.1078117 -172.70963108 107.93637853 -172.45129395 88.78503418 C-172.37948354 83.35357475 -172.31535094 77.92202457 -172.25048828 72.49047852 C-172.12305192 61.91030063 -171.98738537 51.33024678 -171.84619141 40.75024414 C-170.19619141 40.75024414 -168.54619141 40.75024414 -166.84619141 40.75024414 C-166.71341797 42.0405957 -166.58064453 43.33094727 -166.44384766 44.66040039 C-166.26553263 46.37785562 -166.08714327 48.09530313 -165.90869141 49.81274414 C-165.82167969 50.66030273 -165.73466797 51.50786133 -165.64501953 52.38110352 C-165.14377128 57.1893738 -164.56618608 61.96973897 -163.84619141 66.75024414 C-163.18619141 66.75024414 -162.52619141 66.75024414 -161.84619141 66.75024414 C-161.57806641 67.76086914 -161.30994141 68.77149414 -161.03369141 69.81274414 C-159.28129568 75.86647482 -157.32074462 80.29211131 -152.84619141 84.75024414 C-151.59076194 86.4815002 -150.36293932 88.23300402 -149.15869141 90.00024414 C-139.12917569 103.85753833 -123.85726608 113.08846797 -107.03051758 116.28515625 C-104.02608743 116.72396936 -101.2109943 116.87944036 -98.17822266 116.88305664 C-97.11925781 116.8843457 -96.06029297 116.88563477 -94.96923828 116.88696289 C-93.87675781 116.8830957 -92.78427734 116.87922852 -91.65869141 116.87524414 C-90.58554688 116.87911133 -89.51240234 116.88297852 -88.40673828 116.88696289 C-81.49992138 116.87860619 -74.7117216 116.50270145 -67.84619141 115.75024414 C-67.84619141 115.09024414 -67.84619141 114.43024414 -67.84619141 113.75024414 C-61.34619141 110.75024414 -61.34619141 110.75024414 -56.84619141 110.75024414 C-56.84619141 110.09024414 -56.84619141 109.43024414 -56.84619141 108.75024414 C-55.12942396 107.73357689 -53.36972287 106.78929497 -51.59619141 105.87524414 C-36.9613458 97.51493776 -25.0286962 82.54378822 -19.78369141 66.50024414 C-17.71471406 58.22433475 -16.48620005 50.48769627 -16.53369141 41.93774414 C-16.53425537 40.98013184 -16.53481934 40.02251953 -16.53540039 39.03588867 C-16.6209444 32.41489423 -17.3701677 26.56852717 -19.28759766 20.21118164 C-19.90278234 17.50092745 -19.7583493 16.33835101 -18.84619141 13.75024414 C-16.78228047 11.76693224 -14.7545989 9.97459805 -12.53369141 8.18774414 C-11.95167969 7.7062793 -11.36966797 7.22481445 -10.77001953 6.72875977 C-9.64170271 5.79978317 -8.50632972 4.87929484 -7.36328125 3.96850586 C-6.10823499 2.9606718 -4.88809712 1.90953798 -3.67822266 0.84790039 C-1.84619141 -0.24975586 -1.84619141 -0.24975586 0 0 Z " fill="#478BBE" transform="translate(263.84619140625,214.249755859375)"/>
<path d="M0 0 C1.04599365 0.00539795 2.0919873 0.0107959 3.16967773 0.01635742 C14.59059314 0.23833573 25.02159453 2.51284646 35.375 7.4375 C35.705 8.0975 36.035 8.7575 36.375 9.4375 C37.8998929 10.22104181 39.44607032 10.96324959 41 11.6875 C52.96911463 18.07831969 63.07919728 28.47547483 69.375 40.4375 C69.77976562 41.13230469 70.18453125 41.82710937 70.6015625 42.54296875 C73.41023466 47.60464052 74.48894627 52.74810235 75.375 58.4375 C78.015 58.4375 80.655 58.4375 83.375 58.4375 C83.375 66.6875 83.375 74.9375 83.375 83.4375 C79.91 84.4275 79.91 84.4275 76.375 85.4375 C76.25125 86.406875 76.1275 87.37625 76 88.375 C73.68660996 104.18449249 67.23053521 116.67239354 56.375 128.4375 C55.80136719 129.09105469 55.22773438 129.74460937 54.63671875 130.41796875 C43.74589066 142.19253945 25.10396516 150.78558253 9.12304688 151.54443359 C-13.53074946 152.11580658 -33.21799487 148.09606897 -50.25 131.9375 C-58.69452588 123.04852539 -67.75868413 110.91848741 -69.625 98.4375 C-70.285 98.4375 -70.945 98.4375 -71.625 98.4375 C-73.71857979 91.57521069 -73.92617007 85.20925288 -73.875 78.0625 C-73.88273438 76.99 -73.89046875 75.9175 -73.8984375 74.8125 C-73.88402932 68.89073872 -73.45081042 63.43093438 -72.05371094 57.66943359 C-71.56169639 55.10793187 -71.30449528 53.0366257 -71.625 50.4375 C-73.19486081 48.58596145 -73.19486081 48.58596145 -75.421875 47.140625 C-76.2159375 46.57472656 -77.01 46.00882813 -77.828125 45.42578125 C-78.66859375 44.85214844 -79.5090625 44.27851563 -80.375 43.6875 C-81.2 43.09839844 -82.025 42.50929687 -82.875 41.90234375 C-87.82492119 38.1851214 -87.82492119 38.1851214 -93.625 36.4375 C-95.97815424 38.11323105 -98.00719878 39.75218505 -100.125 41.6875 C-101.25968414 42.69353514 -102.39508345 43.69876432 -103.53125 44.703125 C-104.06234375 45.17814453 -104.5934375 45.65316406 -105.140625 46.14257812 C-106.89818575 47.67581862 -108.72871482 49.08035473 -110.625 50.4375 C-110.49222656 51.08976562 -110.35945312 51.74203125 -110.22265625 52.4140625 C-109.95775391 53.72503906 -109.95775391 53.72503906 -109.6875 55.0625 C-109.51347656 55.92101562 -109.33945313 56.77953125 -109.16015625 57.6640625 C-108.89525391 59.03691406 -108.89525391 59.03691406 -108.625 60.4375 C-108.44195312 61.31664062 -108.25890625 62.19578125 -108.0703125 63.1015625 C-107.44276787 67.80264247 -107.44070111 72.44985039 -107.4375 77.1875 C-107.42525391 78.1259375 -107.41300781 79.064375 -107.40039062 80.03125 C-107.38718867 86.40339366 -108.15742386 92.24383122 -109.625 98.4375 C-109.99625 100.1390625 -109.99625 100.1390625 -110.375 101.875 C-116.27840664 118.69970893 -129.12160101 134.70356937 -144.62890625 143.51171875 C-146.625 144.4375 -146.625 144.4375 -148.625 144.4375 C-148.625 145.0975 -148.625 145.7575 -148.625 146.4375 C-152.255 147.4275 -155.885 148.4175 -159.625 149.4375 C-159.625 150.0975 -159.625 150.7575 -159.625 151.4375 C-167.49623806 153.14252826 -175.01793048 153.77478302 -183.0625 153.75 C-184.10470703 153.76611328 -185.14691406 153.78222656 -186.22070312 153.79882812 C-203.80577715 153.80973022 -221.21332286 147.13382952 -234.10498047 135.05029297 C-246.625 122.4701017 -246.625 122.4701017 -246.625 117.4375 C-248.11 116.9425 -248.11 116.9425 -249.625 116.4375 C-250.69402939 114.13497517 -251.69675817 111.8002974 -252.625 109.4375 C-252.955 109.1075 -253.285 108.7775 -253.625 108.4375 C-253.66580783 106.43791636 -253.66754356 104.43704746 -253.625 102.4375 C-254.285 102.4375 -254.945 102.4375 -255.625 102.4375 C-258.05114476 93.61384256 -259.02911834 85.58254844 -258.625 76.4375 C-260.275 76.4375 -261.925 76.4375 -263.625 76.4375 C-263.625 67.8575 -263.625 59.2775 -263.625 50.4375 C-259.995 50.4375 -256.365 50.4375 -252.625 50.4375 C-252.53734375 49.58285156 -252.4496875 48.72820312 -252.359375 47.84765625 C-249.40915478 34.1479634 -235.46227679 21.10833068 -224.25 13.5 C-211.40098561 5.95941053 -198.01457602 2.07001634 -183.125 2.125 C-181.81595703 2.10083008 -181.81595703 2.10083008 -180.48046875 2.07617188 C-174.05225055 2.07141023 -168.67875625 3.35681036 -162.625 5.4375 C-161.54089844 5.75332031 -160.45679688 6.06914062 -159.33984375 6.39453125 C-152.55315888 8.48494473 -147.2980165 11.20922454 -141.625 15.4375 C-140.66980469 16.11683594 -139.71460938 16.79617187 -138.73046875 17.49609375 C-130.4650466 23.39996671 -130.4650466 23.39996671 -127.625 26.4375 C-124.78744957 25.09079896 -122.25378965 23.57167315 -119.69140625 21.7578125 C-118.5940918 20.98244141 -118.5940918 20.98244141 -117.47460938 20.19140625 C-116.71986328 19.65386719 -115.96511719 19.11632812 -115.1875 18.5625 C-114.43662109 18.03269531 -113.68574219 17.50289062 -112.91210938 16.95703125 C-109.80182157 14.75220102 -106.75355335 12.54226032 -103.796875 10.1328125 C-99.57010408 6.83349851 -94.26466611 5.93820445 -88.96850586 5.99560547 C-83.89676242 6.95194005 -79.76341086 10.27407676 -75.5625 13.125 C-74.60794922 13.75083984 -73.65339844 14.37667969 -72.66992188 15.02148438 C-68.57613097 17.71960053 -64.57531216 20.46519219 -60.69140625 23.45703125 C-57.94032987 25.69609364 -57.94032987 25.69609364 -55.5769043 25.19311523 C-52.6236257 24.04985104 -51.015215 21.99129831 -48.875 19.6875 C-42.71615651 13.34778005 -36.81263137 9.71255255 -28.625 6.4375 C-27.531875 5.9425 -26.43875 5.4475 -25.3125 4.9375 C-16.76932035 1.46230828 -9.24218683 -0.09180239 0 0 Z " fill="#353B50" transform="translate(355.625,178.5625)"/>
<path d="M0 0 C175.89 0 351.78 0 533 0 C533 175.89 533 351.78 533 533 C357.11 533 181.22 533 0 533 C0 357.11 0 181.22 0 0 Z M33 27 C32.30132812 27.55042969 31.60265625 28.10085937 30.8828125 28.66796875 C23.80340294 34.90721492 17.73094155 45.67089457 16 55 C15.90433916 57.33929417 15.86728653 59.68116601 15.86298561 62.02241135 C15.86033378 62.7330385 15.85768196 63.44366566 15.85494977 64.17582697 C15.84725904 66.56927795 15.84669768 68.96267762 15.84609985 71.35614014 C15.84208505 73.08473123 15.8376468 74.81332139 15.8328203 76.54191041 C15.82085037 81.30204509 15.81520534 86.06216963 15.81063914 90.82231641 C15.80468443 95.9528045 15.79307404 101.08328046 15.78234863 106.21376038 C15.75781833 118.61123833 15.74319484 131.00872031 15.73028857 143.40621507 C15.72657654 146.9086242 15.7226033 150.41103293 15.7185359 153.91344166 C15.693295 175.66705111 15.67124372 197.4206612 15.65880775 219.17428207 C15.65587808 224.21400708 15.65291642 229.25373207 15.64990234 234.29345703 C15.64915629 235.54604688 15.64841024 236.79863672 15.64764158 238.08918384 C15.63499608 258.36689021 15.60178458 278.64450873 15.56010051 298.92217407 C15.5176447 319.74624706 15.49410834 340.57027514 15.48888719 361.3943913 C15.4854768 373.08401968 15.47376568 384.77351089 15.44078445 396.46309662 C15.41273246 406.42194498 15.40180714 416.38062806 15.41297992 426.33951285 C15.41815371 431.41697305 15.41536313 436.49408739 15.39051437 441.57149696 C15.36791069 446.22926594 15.36884747 450.88644285 15.38771825 455.54422298 C15.39050278 457.2200245 15.3850068 458.89586713 15.36990531 460.57160291 C15.24953635 474.81091977 16.94320575 488.78339138 26.828125 499.8203125 C32.76123374 505.77476336 38.18963263 510.74678069 46 514 C46.5817832 514.26636906 47.1635664 514.53273812 47.76297939 514.80717897 C55.54971658 517.93373323 63.72354219 517.42318759 71.96414185 517.39440918 C73.69776392 517.39930179 75.43138273 517.4054933 77.16499603 517.41286707 C81.9158145 517.42924329 86.66646676 517.42695334 91.41730356 517.4214921 C96.54633518 517.41881899 101.67532279 517.43335914 106.80433655 517.44558716 C116.84863126 517.46663279 126.89286823 517.47118245 136.93718238 517.46939927 C145.10427612 517.46809099 153.27135187 517.47189918 161.43844223 517.47932434 C163.79216667 517.48142358 166.14589111 517.48352118 168.49961555 517.48561716 C169.67119724 517.48666069 170.84277892 517.48770422 172.04986309 517.48877937 C194.20443133 517.5076789 216.35896645 517.50663267 238.51353942 517.49981004 C258.76574648 517.49423716 279.01782693 517.51504968 299.27000441 517.54817051 C320.07729099 517.58193429 340.88451698 517.59707233 361.69183147 517.59245348 C373.36848544 517.59021121 385.04502246 517.5954163 396.72165298 517.62034607 C406.66468657 517.64139409 416.60753911 517.64491659 426.55058022 517.62604648 C431.61983933 517.61690957 436.68876118 517.61568279 441.7579937 517.63640213 C446.40689331 517.65519255 451.05518136 517.65051877 455.70405827 517.62785631 C457.37766647 517.62369078 459.05132229 517.62780097 460.72487999 517.64145225 C475.12931325 517.75086221 488.50787914 515.47077944 500 506 C500.67289062 505.47277344 501.34578125 504.94554687 502.0390625 504.40234375 C506.77496269 500.24243143 509.61880626 495.49095616 512.4375 489.9375 C512.77982666 489.26477051 513.12215332 488.59204102 513.47485352 487.89892578 C516.6311677 481.32588341 517.12416105 474.98407443 517.13142776 467.71218014 C517.1334804 467.00931087 517.13553303 466.30644161 517.13764787 465.58227327 C517.14329036 463.2332927 517.14186403 460.88437126 517.14044189 458.53538513 C517.14302711 456.83165341 517.14604071 455.12792229 517.1494453 453.42419201 C517.1575002 448.74678145 517.15930403 444.06938624 517.16004276 439.39196956 C517.16189596 434.3454204 517.16944465 429.29887916 517.17617798 424.25233459 C517.18975123 413.2191042 517.19578449 402.18587745 517.20018864 391.1526401 C517.20295284 384.26097521 517.20719052 377.36931172 517.21169281 370.47764778 C517.2238843 351.38968589 517.23418376 332.30172512 517.2375679 313.21375942 C517.23778747 311.99243608 517.23800703 310.77111274 517.23823325 309.5127796 C517.23845153 308.28856426 517.23866981 307.06434892 517.2388947 305.80303615 C517.23933816 303.32238543 517.23978473 300.84173471 517.24023438 298.36108398 C517.2404558 297.13060033 517.24067723 295.90011667 517.24090537 294.63234562 C517.24485238 274.69946407 517.26230399 254.7666191 517.2855939 234.83375167 C517.30932243 214.35989633 517.32177044 193.88605933 517.32293582 173.41219002 C517.32385175 161.92056508 517.32958337 150.42898781 517.34775543 138.93737602 C517.3631767 129.15094428 517.36826492 119.36457493 517.36001733 109.57813334 C517.35611799 104.58807166 517.35700544 99.59813557 517.37107468 94.60808945 C517.38385643 90.03270073 517.38257872 85.45753139 517.37048396 80.88214279 C517.36853435 79.23406328 517.37157109 77.585968 517.38032833 75.93791061 C517.46577032 58.75949056 515.27519785 42.97153088 503.03515625 29.84375 C491.7303276 19.6021394 478.49047243 15.88708227 463.55231094 15.86577892 C462.84431189 15.86342669 462.13631284 15.86107446 461.40685928 15.85865095 C459.04647195 15.85202085 456.68614044 15.85241734 454.32574463 15.85282898 C452.61147471 15.84952665 450.89720555 15.84580031 449.18293738 15.8416875 C444.48112365 15.83170199 439.77932269 15.82795631 435.07749987 15.82529819 C430.00305677 15.82138507 424.92862369 15.8118077 419.85418701 15.80308533 C407.60671264 15.78335317 395.35923748 15.77326052 383.1117512 15.76435754 C377.34134341 15.75997081 371.57093654 15.75460514 365.80052948 15.74936867 C346.61558854 15.73236246 327.43064816 15.71786743 308.24570084 15.71061993 C303.2708969 15.70871012 298.29609298 15.70678977 293.32128906 15.70483398 C292.08486505 15.70435024 290.84844105 15.7038665 289.57454965 15.7033681 C269.53690446 15.69506438 249.4993189 15.66971895 229.46169975 15.63725331 C208.8816015 15.60418083 188.30153357 15.58617114 167.72140861 15.58297569 C156.16948224 15.58081117 144.61764294 15.57207059 133.06574249 15.54651451 C123.23022527 15.52480531 113.39481627 15.51675837 103.5592778 15.52648129 C98.54309091 15.5310248 93.52712731 15.52913645 88.51097107 15.50971985 C83.91408451 15.49208002 79.31758403 15.49309259 74.72069332 15.50861714 C73.06258254 15.5109919 71.40444497 15.50667653 69.74637511 15.49478849 C55.4672707 15.39879561 44.28965539 17.75779059 33 27 Z " fill="#212432" transform="translate(0,0)"/>
<path d="M0 0 C1.4606285 2.64738916 2 3.89448334 2 7 C2.66 7 3.32 7 4 7 C9.9302428 17.44029801 9.9302428 17.44029801 11.625 22.25 C12.65681335 25.06403642 13.62465681 27.22085005 15.125 29.75 C16.65992726 32.41054058 17.38159239 34.09727038 18 37 C19.09332642 36.94670532 19.09332642 36.94670532 20.20874023 36.89233398 C34.21339276 36.23164352 48.02369603 35.71867453 62 37 C62.12238037 36.27079346 62.24476074 35.54158691 62.37084961 34.7902832 C62.98803526 32.05306366 63.84938179 29.87522363 65.06640625 27.35546875 C65.46923828 26.51435547 65.87207031 25.67324219 66.28710938 24.80664062 C66.70798828 23.94232422 67.12886719 23.07800781 67.5625 22.1875 C68.19961914 20.86202148 68.19961914 20.86202148 68.84960938 19.50976562 C69.89471424 17.33735663 70.94496762 15.16760043 72 13 C72.66 13 73.32 13 74 13 C74.144375 12.21625 74.28875 11.4325 74.4375 10.625 C75 8 75 8 76 6 C76.66 6 77.32 6 78 6 C78.33 4.35 78.66 2.7 79 1 C84.72651011 -0.54318292 88.99284779 0.72311084 94.5 2.375 C95.85822876 2.77187012 95.85822876 2.77187012 97.24389648 3.17675781 C109.1195843 6.77501889 120.93675574 11.35616025 132 17 C131.47064881 31.72284884 130.46027971 46.34049296 129 61 C132.96 62.98 132.96 62.98 137 65 C137 65.66 137 66.32 137 67 C137.87269531 67.24621094 138.74539063 67.49242187 139.64453125 67.74609375 C143.23499473 69.08781526 145.66251541 70.72257331 148.6875 73.0625 C149.72261719 73.85785156 150.75773437 74.65320313 151.82421875 75.47265625 C155.83732365 78.63610102 159.74531641 81.92455692 163.625 85.25 C165.86552175 86.90091077 167.28290974 87.59746811 170 88 C170.33 87.01 170.66 86.02 171 85 C173.22617686 83.46429511 175.41094506 82.09160975 177.75 80.75 C178.42015137 80.3595752 179.09030273 79.96915039 179.78076172 79.56689453 C181.16775595 78.76334706 182.55761025 77.96471729 183.95019531 77.17089844 C185.87951215 76.0688256 187.79538585 74.94607383 189.7109375 73.8203125 C190.83757812 73.17835938 191.96421875 72.53640625 193.125 71.875 C194.13820313 71.29492188 195.15140625 70.71484375 196.1953125 70.1171875 C199.39605056 68.8422417 200.78661309 68.85392856 204 70 C206.5 72.1875 206.5 72.1875 209 75 C209.70576172 75.78890625 209.70576172 75.78890625 210.42578125 76.59375 C214 80.70158451 214 80.70158451 214 83 C214.66 83 215.32 83 216 83 C216.33 83.99 216.66 84.98 217 86 C217.70125 86.66 218.4025 87.32 219.125 88 C222.48088639 91.22087946 224.7283057 95.06858989 227.14453125 99.015625 C228.4022634 101.03858787 229.71472706 103.02834553 231.07421875 104.984375 C231.73035156 105.93828125 232.38648438 106.8921875 233.0625 107.875 C233.97708984 109.17050781 233.97708984 109.17050781 234.91015625 110.4921875 C236 113 236 113 235.46484375 115.38671875 C233.62161956 118.67503071 231.61793196 121.82244097 229.5 124.9375 C228.84656616 125.91614014 228.84656616 125.91614014 228.17993164 126.91455078 C225.92171674 130.27134578 223.60483525 133.55945187 221.15234375 136.77734375 C214.55907371 145.41227678 214.55907371 145.41227678 213 156 C210.36 156 207.72 156 205 156 C204.79246094 155.28457031 204.58492188 154.56914062 204.37109375 153.83203125 C198.40075977 134.52212259 186.88300295 118.8928054 168.9375 109.125 C168.20402344 108.75632812 167.47054688 108.38765625 166.71484375 108.0078125 C165 107 165 107 164 105 C161.4404869 104.0523602 158.92295896 103.21670697 156.3125 102.4375 C155.60416016 102.21642578 154.89582031 101.99535156 154.16601562 101.76757812 C138.78226871 97.06580506 118.89728441 96.27754854 104 103 C101.98554423 104.31139076 99.98392544 105.64286419 98 107 C96.88625 107.45375 95.7725 107.9075 94.625 108.375 C87.35783195 111.63269602 82.11561835 116.66160999 76.859375 122.55859375 C75.93898438 123.27208984 75.93898438 123.27208984 75 124 C71.96346649 123.56665931 69.81189305 122.41917759 67.27734375 120.7421875 C66.57923584 120.28432861 65.88112793 119.82646973 65.16186523 119.35473633 C64.06080444 118.62226685 64.06080444 118.62226685 62.9375 117.875 C62.17961182 117.38088623 61.42172363 116.88677246 60.64086914 116.37768555 C57.30134283 114.19877684 53.99117903 111.99385682 50.71875 109.71484375 C45.13195201 105.8935367 41.80390892 103.88460509 35 105 C28.97043052 106.93071189 24.49072386 109.46228932 19.5 113.3125 C18.52824829 114.04400269 18.52824829 114.04400269 17.53686523 114.7902832 C16.26224345 115.7510044 14.99054992 116.71562598 13.72216797 117.68457031 C11.51552271 119.37005439 9.28907926 121.02848016 7.0625 122.6875 C5.5465625 123.8321875 5.5465625 123.8321875 4 125 C0.67692289 123.51296093 -1.84403267 121.58709958 -4.625 119.25 C-22.02939695 105.12654975 -41.82732918 99.07743297 -64 101 C-68.19763053 101.60560529 -72.00632952 102.58946958 -76 104 C-77.06347656 104.35191406 -78.12695312 104.70382813 -79.22265625 105.06640625 C-97.72322596 111.6227485 -112.21204076 124.44714703 -121 142 C-121.70920478 143.98531434 -122.3895289 145.9821374 -123 148 C-124.77007714 148.08114106 -126.54122098 148.13925505 -128.3125 148.1875 C-129.29863281 148.22230469 -130.28476563 148.25710937 -131.30078125 148.29296875 C-134 148 -134 148 -135.60546875 146.92578125 C-137.23334659 144.67775947 -138.56983078 142.30465035 -139.91113281 139.87744141 C-141.68210095 136.82391114 -143.78332773 134.02648506 -145.875 131.1875 C-149.91014009 125.6348968 -153.61228302 119.97670394 -157 114 C-154.69393665 109.98366475 -152.35465864 105.98802857 -150 102 C-149.47148437 101.09121094 -148.94296875 100.18242187 -148.3984375 99.24609375 C-143.81315193 91.66794938 -138.23096494 85.17878864 -132.37011719 78.58007812 C-131.16395905 77.18908464 -130.01806754 75.74631501 -128.8828125 74.296875 C-128.30273438 73.55953125 -127.72265625 72.8221875 -127.125 72.0625 C-126.41730469 71.12083984 -126.41730469 71.12083984 -125.6953125 70.16015625 C-124 69 -124 69 -121.25 69.0859375 C-117.50896117 70.13810467 -114.25675339 71.69329985 -110.875 73.5625 C-110.224104 73.913125 -109.57320801 74.26375 -108.90258789 74.625 C-103.54864854 77.56303385 -98.60028434 80.90475481 -93.68359375 84.53125 C-90.43938395 86.30682916 -88.64644955 86.5639842 -85 86 C-82.71709197 84.47612779 -82.71709197 84.47612779 -80.6875 82.25 C-76.1771411 77.92471662 -71.42934794 74.27310921 -66.3125 70.6875 C-65.59989014 70.18444336 -64.88728027 69.68138672 -64.15307617 69.16308594 C-59.8866317 66.19228103 -55.55190839 63.51160345 -51 61 C-50.91228128 54.41134984 -50.83915061 47.87445519 -51.5 41.3125 C-52.31282524 32.89804151 -52.07949075 24.44368416 -52 16 C-37.86681881 10.24132492 -23.74001703 4.99298369 -9 1 C-8.31510498 0.81373047 -7.63020996 0.62746094 -6.92456055 0.43554688 C-4.58135242 -0.09474404 -2.3942545 -0.06650707 0 0 Z " fill="#478BBE" transform="translate(226,81)"/>
<path d="M0 0 C9.79964587 -0.25710098 19.47966451 0.44549736 29.23828125 1.22680664 C31.89021784 1.43871602 34.5426788 1.64272535 37.1953125 1.84570312 C38.89847354 1.978706 40.60159991 2.11215362 42.3046875 2.24609375 C43.08915253 2.3065538 43.87361755 2.36701385 44.68185425 2.42930603 C48.83406277 2.76516011 52.89776794 3.24372486 57 4 C57.06993164 4.91813477 57.13986328 5.83626953 57.21191406 6.78222656 C57.48077924 10.19793824 57.76588461 13.61148828 58.06201172 17.02490234 C58.18668695 18.50060369 58.30492149 19.97686424 58.41650391 21.45361328 C58.57832965 23.58026137 58.76345882 25.70380106 58.953125 27.828125 C59.05786133 29.1059082 59.16259766 30.38369141 59.27050781 31.70019531 C60.10002348 35.45244893 60.90804233 36.767355 64 39 C66.14172114 39.68917898 66.14172114 39.68917898 68.48046875 39.7578125 C69.38079834 39.82500488 70.28112793 39.89219727 71.20874023 39.96142578 C72.68322632 40.04239502 72.68322632 40.04239502 74.1875 40.125 C75.22398682 40.1957373 76.26047363 40.26647461 77.32836914 40.33935547 C79.62525604 40.49264898 81.92276221 40.63685103 84.22070312 40.7734375 C87.54600281 40.97278363 90.86916277 41.19059397 94.19265747 41.41723633 C116.0750779 42.90612216 116.0750779 42.90612216 138 43 C140.52113698 37.51290619 140.52113698 37.51290619 141.625 31.625 C142 28 142 28 143 27 C143.66 22.05 144.32 17.1 145 12 C163.81 12 182.62 12 202 12 C203.83626748 20.56924825 205.45086678 28.5439559 206.47265625 37.13671875 C206.83968202 40.1872418 206.83968202 40.1872418 209 43 C212.04604907 43.44361069 212.04604907 43.44361069 215.79296875 43.30078125 C216.52694382 43.29033279 217.26091888 43.27988434 218.01713562 43.26911926 C229.16362429 43.03131948 240.29652664 42.23108055 251.41577148 41.45581055 C255.34864454 41.18501126 259.28252423 40.93508255 263.21679688 40.68554688 C265.72404536 40.51429026 268.23121061 40.34180957 270.73828125 40.16796875 C271.9111116 40.09595749 273.08394196 40.02394623 274.29231262 39.94975281 C275.3783226 39.86989639 276.46433258 39.79003998 277.58325195 39.70776367 C279.01191338 39.61116707 279.01191338 39.61116707 280.46943665 39.51261902 C283.36737913 38.9255796 284.83661425 37.98688272 287 36 C288.3345744 32.6842533 288.29385827 29.02341198 288.53515625 25.484375 C288.62216797 24.23398437 288.70917969 22.98359375 288.79882812 21.6953125 C288.88583984 20.39335937 288.97285156 19.09140625 289.0625 17.75 C289.15396895 16.41924825 289.24576229 15.08851876 289.33789062 13.7578125 C289.56178768 10.50541323 289.7823637 7.25282322 290 4 C293.91434337 3.30533882 297.77462251 2.79846527 301.73828125 2.5 C302.80626953 2.4175 303.87425781 2.335 304.97460938 2.25 C306.07611328 2.1675 307.17761719 2.085 308.3125 2 C317.03241591 1.35573345 317.03241591 1.35573345 325.7265625 0.44140625 C330.18180699 -0.07689311 334.58184258 -0.11355044 339.0625 -0.0625 C339.83271484 -0.05798828 340.60292969 -0.05347656 341.39648438 -0.04882812 C343.2643578 -0.03722643 345.13219026 -0.01929999 347 0 C347.54662198 23.10949554 345.57496258 40.59762457 329.20458984 57.87402344 C292.35482075 95.31793975 230.30250317 103.75146059 180.26657104 104.17100525 C137.42409855 104.3973013 137.42409855 104.3973013 123 102 C123 101.34 123 100.68 123 100 C122.11957031 100.01160156 121.23914063 100.02320313 120.33203125 100.03515625 C118.58986328 100.04869141 118.58986328 100.04869141 116.8125 100.0625 C115.66394531 100.07410156 114.51539063 100.08570313 113.33203125 100.09765625 C110.40699414 100.01192832 107.83683709 99.67849023 105 99 C105 98.34 105 97.68 105 97 C103.07800781 96.814375 103.07800781 96.814375 101.1171875 96.625 C96.04349258 96.06059367 91.10968185 95.08499384 86.125 94 C84.86429688 93.73316406 84.86429688 93.73316406 83.578125 93.4609375 C80.31271413 92.76195179 77.17179525 92.05726508 74 91 C74 90.34 74 89.68 74 89 C72.80375 88.95875 71.6075 88.9175 70.375 88.875 C63.39731982 88.11439979 57.29079835 84.94557382 51 82 C49.72769531 81.41605469 49.72769531 81.41605469 48.4296875 80.8203125 C45.05617393 79.21447025 42.60535932 77.61832131 40 75 C38.54408446 73.94627107 37.06292673 72.92682015 35.5625 71.9375 C34.80066406 71.43089844 34.03882813 70.92429687 33.25390625 70.40234375 C31.05105146 68.97348189 31.05105146 68.97348189 28.77734375 67.94140625 C27 67 27 67 26 65 C25.278125 64.5875 24.55625 64.175 23.8125 63.75 C20.2627337 61.54125653 17.82424048 59.08696053 15 56 C15 55.34 15 54.68 15 54 C14.01 53.67 13.02 53.34 12 53 C1.941084 40.82341748 -0.34584706 27.78637064 -0.125 12.4375 C-0.11597656 11.23802734 -0.10695313 10.03855469 -0.09765625 8.80273438 C-0.07427412 5.86827691 -0.0415028 2.93424766 0 0 Z " fill="#478BBF" transform="translate(92,349)"/>
<path d="M0 0 C13.90952755 10.65266256 24.46417478 27.51781552 27 45 C28.84955281 65.67847668 24.7445188 84.12186583 11.75 100.8125 C0.27200882 113.96878569 -16.39141157 124.91578612 -34.23535156 126.15527344 C-55.63354294 127.18313416 -74.29717217 122.55997126 -90.6159668 108.27270508 C-102.39141224 97.40349168 -112.13425135 80.9226518 -113.14355469 64.69140625 C-113.94075814 44.2009097 -110.12003702 27.15836138 -97 11 C-96.2575 9.96875 -95.515 8.9375 -94.75 7.875 C-69.32432248 -18.70639014 -29.35191272 -21.46498655 0 0 Z " fill="#353C50" transform="translate(401,199)"/>
<path d="M0 0 C1.04599365 0.00539795 2.0919873 0.0107959 3.16967773 0.01635742 C14.59059314 0.23833573 25.02159453 2.51284646 35.375 7.4375 C35.705 8.0975 36.035 8.7575 36.375 9.4375 C37.8998929 10.22104181 39.44607032 10.96324959 41 11.6875 C52.96911463 18.07831969 63.07919728 28.47547483 69.375 40.4375 C69.77976562 41.13230469 70.18453125 41.82710937 70.6015625 42.54296875 C73.41023466 47.60464052 74.48894627 52.74810235 75.375 58.4375 C78.015 58.4375 80.655 58.4375 83.375 58.4375 C83.375 66.6875 83.375 74.9375 83.375 83.4375 C79.91 84.4275 79.91 84.4275 76.375 85.4375 C76.25125 86.406875 76.1275 87.37625 76 88.375 C73.68660996 104.18449249 67.23053521 116.67239354 56.375 128.4375 C55.80136719 129.09105469 55.22773438 129.74460937 54.63671875 130.41796875 C43.74589066 142.19253945 25.10396516 150.78558253 9.12304688 151.54443359 C-13.53074946 152.11580658 -33.21799487 148.09606897 -50.25 131.9375 C-58.69452588 123.04852539 -67.75868413 110.91848741 -69.625 98.4375 C-70.285 98.4375 -70.945 98.4375 -71.625 98.4375 C-73.71857979 91.57521069 -73.92617007 85.20925288 -73.875 78.0625 C-73.88273438 76.99 -73.89046875 75.9175 -73.8984375 74.8125 C-73.88402932 68.89073872 -73.45081042 63.43093438 -72.05371094 57.66943359 C-71.56169639 55.10793187 -71.30449528 53.0366257 -71.625 50.4375 C-73.19486081 48.58596145 -73.19486081 48.58596145 -75.421875 47.140625 C-76.2159375 46.57472656 -77.01 46.00882813 -77.828125 45.42578125 C-78.66859375 44.85214844 -79.5090625 44.27851563 -80.375 43.6875 C-81.2 43.09839844 -82.025 42.50929687 -82.875 41.90234375 C-87.82492119 38.1851214 -87.82492119 38.1851214 -93.625 36.4375 C-95.97815424 38.11323105 -98.00719878 39.75218505 -100.125 41.6875 C-101.25968414 42.69353514 -102.39508345 43.69876432 -103.53125 44.703125 C-104.06234375 45.17814453 -104.5934375 45.65316406 -105.140625 46.14257812 C-106.89818575 47.67581862 -108.72871482 49.08035473 -110.625 50.4375 C-110.49222656 51.08976562 -110.35945312 51.74203125 -110.22265625 52.4140625 C-109.95775391 53.72503906 -109.95775391 53.72503906 -109.6875 55.0625 C-109.51347656 55.92101562 -109.33945313 56.77953125 -109.16015625 57.6640625 C-108.89525391 59.03691406 -108.89525391 59.03691406 -108.625 60.4375 C-108.44195312 61.31664062 -108.25890625 62.19578125 -108.0703125 63.1015625 C-107.44276787 67.80264247 -107.44070111 72.44985039 -107.4375 77.1875 C-107.42525391 78.1259375 -107.41300781 79.064375 -107.40039062 80.03125 C-107.38718867 86.40339366 -108.15742386 92.24383122 -109.625 98.4375 C-109.99625 100.1390625 -109.99625 100.1390625 -110.375 101.875 C-116.27840664 118.69970893 -129.12160101 134.70356937 -144.62890625 143.51171875 C-146.625 144.4375 -146.625 144.4375 -148.625 144.4375 C-148.625 145.0975 -148.625 145.7575 -148.625 146.4375 C-152.255 147.4275 -155.885 148.4175 -159.625 149.4375 C-159.625 150.0975 -159.625 150.7575 -159.625 151.4375 C-167.49623806 153.14252826 -175.01793048 153.77478302 -183.0625 153.75 C-184.10470703 153.76611328 -185.14691406 153.78222656 -186.22070312 153.79882812 C-203.80577715 153.80973022 -221.21332286 147.13382952 -234.10498047 135.05029297 C-246.625 122.4701017 -246.625 122.4701017 -246.625 117.4375 C-248.11 116.9425 -248.11 116.9425 -249.625 116.4375 C-250.69402939 114.13497517 -251.69675817 111.8002974 -252.625 109.4375 C-252.955 109.1075 -253.285 108.7775 -253.625 108.4375 C-253.66580783 106.43791636 -253.66754356 104.43704746 -253.625 102.4375 C-254.285 102.4375 -254.945 102.4375 -255.625 102.4375 C-258.05114476 93.61384256 -259.02911834 85.58254844 -258.625 76.4375 C-260.275 76.4375 -261.925 76.4375 -263.625 76.4375 C-263.625 67.8575 -263.625 59.2775 -263.625 50.4375 C-259.995 50.4375 -256.365 50.4375 -252.625 50.4375 C-252.53734375 49.58285156 -252.4496875 48.72820312 -252.359375 47.84765625 C-249.40915478 34.1479634 -235.46227679 21.10833068 -224.25 13.5 C-211.40098561 5.95941053 -198.01457602 2.07001634 -183.125 2.125 C-181.81595703 2.10083008 -181.81595703 2.10083008 -180.48046875 2.07617188 C-174.05225055 2.07141023 -168.67875625 3.35681036 -162.625 5.4375 C-161.54089844 5.75332031 -160.45679688 6.06914062 -159.33984375 6.39453125 C-152.55315888 8.48494473 -147.2980165 11.20922454 -141.625 15.4375 C-140.66980469 16.11683594 -139.71460938 16.79617187 -138.73046875 17.49609375 C-130.4650466 23.39996671 -130.4650466 23.39996671 -127.625 26.4375 C-124.78744957 25.09079896 -122.25378965 23.57167315 -119.69140625 21.7578125 C-118.5940918 20.98244141 -118.5940918 20.98244141 -117.47460938 20.19140625 C-116.71986328 19.65386719 -115.96511719 19.11632812 -115.1875 18.5625 C-114.43662109 18.03269531 -113.68574219 17.50289062 -112.91210938 16.95703125 C-109.80182157 14.75220102 -106.75355335 12.54226032 -103.796875 10.1328125 C-99.57010408 6.83349851 -94.26466611 5.93820445 -88.96850586 5.99560547 C-83.89676242 6.95194005 -79.76341086 10.27407676 -75.5625 13.125 C-74.60794922 13.75083984 -73.65339844 14.37667969 -72.66992188 15.02148438 C-68.57613097 17.71960053 -64.57531216 20.46519219 -60.69140625 23.45703125 C-57.94032987 25.69609364 -57.94032987 25.69609364 -55.5769043 25.19311523 C-52.6236257 24.04985104 -51.015215 21.99129831 -48.875 19.6875 C-42.71615651 13.34778005 -36.81263137 9.71255255 -28.625 6.4375 C-27.531875 5.9425 -26.43875 5.4475 -25.3125 4.9375 C-16.76932035 1.46230828 -9.24218683 -0.09180239 0 0 Z M-51.9453125 31.1015625 C-64.96463569 48.27914861 -69.13631701 66.24106785 -67.625 87.4375 C-64.60908137 105.69652546 -54.50013137 121.90058349 -39.77270508 132.93481445 C-23.62719759 144.46067378 -6.20978131 148.17110068 13.375 146.4375 C31.69629379 143.35335435 47.88035371 133.14529166 59.23828125 118.5859375 C70.86199963 101.4584841 75.65220609 81.98563915 71.71875 61.3984375 C66.8031423 42.62590119 56.04953753 26.53908705 39.375 16.4375 C8.51810773 -0.91207486 -28.19216518 3.82943039 -51.9453125 31.1015625 Z M-233.625 28.4375 C-248.58010821 46.05584666 -254.28560338 64.62971557 -252.625 87.4375 C-250.10937876 106.16634338 -239.50833631 122.80590921 -224.7734375 134.30078125 C-207.9219425 145.73721769 -189.49932119 150.25976536 -169.2734375 146.78125 C-150.52066015 142.88311257 -134.40022807 132.31470991 -123.625 116.4375 C-113.64328595 99.79693773 -109.58678741 81.734778 -113.28125 62.3984375 C-118.19001647 43.65202763 -128.94842092 27.50095289 -145.625 17.4375 C-174.07234895 1.17717929 -210.23323913 3.93184575 -233.625 28.4375 Z " fill="#364056" transform="translate(355.625,178.5625)"/>
<path d="M0 0 C6.93059531 -0.08037961 13.71571034 0.19336378 20.6171875 0.8046875 C21.59559601 0.88872833 22.57400452 0.97276917 23.58206177 1.05935669 C25.63773852 1.23714484 27.6932293 1.41709542 29.74853516 1.59912109 C32.85915715 1.87360203 35.97049772 2.13842122 39.08203125 2.40234375 C66.01471248 4.72566191 66.01471248 4.72566191 69.75073242 7.1237793 C71.6706015 10.00714726 71.54842553 12.64340431 71.73046875 16.07421875 C71.79068962 17.09996758 71.79068962 17.09996758 71.85212708 18.1464386 C71.97707949 20.32629554 72.08252656 22.50659861 72.1875 24.6875 C72.26889794 26.16738891 72.35156536 27.64720858 72.43554688 29.12695312 C72.63842344 32.75061509 72.82382309 36.37493074 73 40 C73.57741943 40.01981934 74.15483887 40.03963867 74.74975586 40.06005859 C85.14509469 40.43275471 95.44961517 40.91096379 105.76708984 42.26464844 C113.81503521 43.29270605 121.89915005 43.63996222 130 44 C129.97679687 43.37996094 129.95359375 42.75992188 129.9296875 42.12109375 C129.8137714 36.43292531 130.08918079 30.84636957 130.6875 25.1875 C130.81511719 23.96417969 130.94273437 22.74085938 131.07421875 21.48046875 C132.14876054 17.44073569 133.79962301 14.65690094 137 12 C140.33898926 11.24482727 140.33898926 11.24482727 144.18945312 11.23950195 C145.24651711 11.22614052 145.24651711 11.22614052 146.32493591 11.21250916 C148.64466123 11.19127113 150.96159422 11.21350334 153.28125 11.23828125 C154.89880659 11.23677818 156.51636244 11.23334655 158.13391113 11.22807312 C161.52014488 11.22374508 164.90542517 11.2405522 168.29150391 11.27270508 C172.62636274 11.31248749 176.95943413 11.3031849 181.29434967 11.27847004 C184.63338811 11.26426979 187.97201084 11.27438696 191.3110199 11.29198265 C192.90896104 11.29782203 194.50694491 11.29654547 196.10487366 11.28795815 C198.34105557 11.27994245 200.57464119 11.30426291 202.81054688 11.3371582 C204.71652649 11.34764946 204.71652649 11.34764946 206.66101074 11.35835266 C210.89260699 12.17153062 212.36817956 13.65028742 215 17 C215.69325482 19.696966 216.09524921 21.89758653 216.3125 24.625 C216.45300781 25.93726563 216.59351563 27.24953125 216.73828125 28.6015625 C217.12149312 33.72959014 217.05881506 38.86110864 217 44 C218.0516333 43.91435791 219.1032666 43.82871582 220.18676758 43.74047852 C224.18817938 43.41534526 228.18987353 43.0937994 232.19165039 42.77319336 C233.90494222 42.6354597 235.61816197 42.4968257 237.33129883 42.35717773 C249.54670387 41.36227412 261.75790418 40.58188328 274 40 C274.03440186 39.08186523 274.06880371 38.16373047 274.10424805 37.21777344 C274.24364719 33.80217025 274.40448194 30.38897087 274.57983398 26.97509766 C274.65124591 25.49925112 274.71416162 24.02296742 274.76831055 22.54638672 C274.8477883 20.41981976 274.95802399 18.29671364 275.07421875 16.171875 C275.13182373 14.8940918 275.18942871 13.61630859 275.2487793 12.29980469 C276 9 276 9 277.81762695 6.64453125 C282.65952922 4.14241743 287.46178253 3.94403887 292.84375 3.515625 C294.5847699 3.35764435 294.5847699 3.35764435 296.36096191 3.19647217 C298.81804608 2.97677615 301.27589484 2.7654921 303.734375 2.56201172 C307.46014116 2.25330262 311.18304489 1.92010064 314.90625 1.58203125 C317.30195573 1.37094261 319.69778613 1.16126316 322.09375 0.953125 C323.1921521 0.85630432 324.2905542 0.75948364 325.42224121 0.659729 C332.96252731 0.0418155 340.43606991 -0.10604723 348 0 C348.09765625 10.05859375 348.09765625 10.05859375 348 13 C346.35434844 14.64565156 344.36478823 14.30322021 342.09375 14.46484375 C340.52995605 14.58013428 340.52995605 14.58013428 338.93457031 14.69775391 C337.80116211 14.77687012 336.66775391 14.85598633 335.5 14.9375 C333.13017128 15.11016933 330.76038054 15.28336046 328.390625 15.45703125 C326.56047852 15.58972412 326.56047852 15.58972412 324.69335938 15.72509766 C321.10141049 15.99245186 317.51161241 16.27875266 313.921875 16.57421875 C312.80103516 16.66646729 311.68019531 16.75871582 310.52539062 16.85375977 C308.38333987 17.03114635 306.2414068 17.20996131 304.09960938 17.39038086 C299.38563722 17.77659987 294.7350287 18.11273878 290 18 C290.01160156 18.59683594 290.02320313 19.19367188 290.03515625 19.80859375 C290.09790917 25.84183908 289.9307901 31.85074027 289.625 37.875 C289.59414307 38.60001709 289.56328613 39.32503418 289.53149414 40.07202148 C289.25844679 44.97268209 289.01665176 49.15184393 285.26286316 52.59199524 C282.55469941 54.27707612 280.75503837 54.49330853 277.58325195 54.70776367 C276.49724197 54.78762009 275.41123199 54.8674765 274.29231262 54.94975281 C273.11948227 55.02176407 271.94665192 55.09377533 270.73828125 55.16796875 C269.51908493 55.25250809 268.29988861 55.33704742 267.04374695 55.42414856 C264.45594305 55.60090748 261.86768469 55.77111584 259.27905273 55.93530273 C255.3717465 56.18373305 251.46625302 56.45229081 247.56054688 56.72460938 C237.00576859 57.44370237 226.43452741 58.14632098 215.85546875 58.36328125 C214.57696045 58.39333252 213.29845215 58.42338379 211.98120117 58.4543457 C209 58 209 58 207.14453125 56.32104492 C205.84038671 53.67631324 205.29332497 51.41312492 204.83203125 48.5 C204.66123047 47.448125 204.49042969 46.39625 204.31445312 45.3125 C204.06598633 43.6728125 204.06598633 43.6728125 203.8125 42 C203.63525391 40.906875 203.45800781 39.81375 203.27539062 38.6875 C202.59312436 34.38843229 202 30.36197217 202 26 C183.19 26 164.38 26 145 26 C145 28.64 145 31.28 145 34 C144.25 40.75 144.25 40.75 143 42 C142.50091253 44.99906199 142.09904178 48.00624272 141.6953125 51.01953125 C140.94843871 54.22101835 140.46068191 55.81562347 138 58 C135.1484375 58.4609375 135.1484375 58.4609375 131.375 58.375 C130.29907593 58.35348877 130.29907593 58.35348877 129.20141602 58.33154297 C117.52122976 58.01392284 105.84443228 57.2090841 94.18817139 56.41264343 C89.69594148 56.10670966 85.20313168 55.8420839 80.70703125 55.59765625 C78.55460442 55.46225173 76.40225441 55.32561797 74.25 55.1875 C73.27538818 55.14189941 72.30077637 55.09629883 71.29663086 55.04931641 C67.01132995 54.74374578 64.56862276 54.37980805 60.94140625 51.95703125 C58.41229253 48.10483992 58.00326755 45.02854554 57.6875 40.5 C57.61611816 39.71061035 57.54473633 38.9212207 57.47119141 38.10791016 C56.91076938 31.4032001 56.78611208 24.72558676 57 18 C55.73414063 17.96261719 54.46828125 17.92523438 53.1640625 17.88671875 C35.37840716 17.2749068 17.71167078 15.65949066 0 14 C0 9.38 0 4.76 0 0 Z " fill="#F8FAFC" transform="translate(92,335)"/>
<path d="M0 0 C3.44246086 1.72123043 5.40418623 2.99794956 7.375 6.3125 C8.30380632 10.30636718 8.49311373 14.13712593 7.4375 18.125 C6.85464055 20.62296909 7.38519955 22.54079819 8 25 C8.66 25 9.32 25 10 25 C11.55078125 27.2734375 11.55078125 27.2734375 13.3125 30.375 C13.93640625 31.47328125 14.5603125 32.5715625 15.203125 33.703125 C17.15078501 37.27665772 18.9641492 40.89670233 20.74609375 44.5546875 C22.54360571 48.06011581 24.58835539 51.39379566 26.6796875 54.73046875 C28 57 28 57 29.25 60.5625 C30.75421915 63.21689863 30.75421915 63.21689863 33.40234375 63.58203125 C35.94875533 63.84988661 38.44053858 63.99039602 41 64 C41 64.66 41 65.32 41 66 C41.8971875 66.4021875 41.8971875 66.4021875 42.8125 66.8125 C45.08204054 68.04453629 46.3885606 68.99022727 48 71 C48.62511676 74.37337782 48.5155113 77.6131462 48 81 C46.125 83.625 46.125 83.625 44 85 C43.34 85 42.68 85 42 85 C41.505 86.485 41.505 86.485 41 88 C32.14057508 88.45047923 32.14057508 88.45047923 28 85 C25.20209576 81.67276253 24.07484583 79.72350969 23.625 75.375 C23.97156269 72.25593582 24.53755493 70.67919938 26 68 C16.35135791 67.18558856 6.80921941 66.84002539 -2.875 66.875 C-4.17969238 66.87693359 -5.48438477 66.87886719 -6.82861328 66.88085938 C-15.9200988 66.92161314 -24.94326101 67.18981249 -34 68 C-34 68.66 -34 69.32 -34 70 C-33.34 70 -32.68 70 -32 70 C-30.24568141 73.50863718 -31.04975205 77.28889652 -32 81 C-34.46455654 84.0482673 -36.74987624 85.83325083 -40 88 C-43.11513218 88.22373878 -45.99900186 87.85588034 -49 87 C-51.5625 84.5625 -51.5625 84.5625 -53 82 C-53 81.34 -53 80.68 -53 80 C-53.66 80 -54.32 80 -55 80 C-55.78693051 71.97330879 -55.78693051 71.97330879 -52.625 68.0625 C-51.75875 67.381875 -50.8925 66.70125 -50 66 C-49.01 65.01 -49.01 65.01 -48 64 C-45.6171875 63.8046875 -45.6171875 63.8046875 -42.875 63.875 C-41.96492187 63.89304687 -41.05484375 63.91109375 -40.1171875 63.9296875 C-39.41851562 63.95289063 -38.71984375 63.97609375 -38 64 C-38 63.34 -38 62.68 -38 62 C-37.34 62 -36.68 62 -36 62 C-35.88124512 61.26241455 -35.76249023 60.5248291 -35.64013672 59.76489258 C-35.00745376 57.03219444 -34.16593466 55.16882008 -32.7578125 52.76171875 C-32.30954102 51.9836084 -31.86126953 51.20549805 -31.39941406 50.40380859 C-30.7067041 49.21392334 -30.7067041 49.21392334 -30 48 C-29.13998343 46.4666597 -28.28316908 44.93151861 -27.4296875 43.39453125 C-26.14550415 41.09124827 -24.86129697 38.78799503 -23.57421875 36.48632812 C-21.28125639 32.36957879 -19.06755397 28.23645862 -17 24 C-16.34 24 -15.68 24 -15 24 C-14.13708562 20.26070436 -14.03496056 17.24960547 -14.625 13.5 C-15.18926383 9.14710762 -14.55008795 6.69323082 -12 3 C-8.6940886 -0.67323489 -4.66931254 -0.80815025 0 0 Z " fill="#E7E7EA" transform="translate(176,206)"/>
<path d="M0 0 C3.74030185 1.60298651 4.73158465 2.59737698 7 6 C7.26069641 7.99752808 7.26069641 7.99752808 7.2746582 10.30029297 C7.28895622 11.59711502 7.28895622 11.59711502 7.30354309 12.9201355 C7.30263168 13.85141266 7.30172028 14.78268982 7.30078125 15.7421875 C7.30506638 16.70271027 7.3093515 17.66323303 7.31376648 18.65286255 C7.31951078 20.68539644 7.32000931 22.71795089 7.31567383 24.75048828 C7.31251914 27.85615278 7.3359536 30.96085993 7.36132812 34.06640625 C7.36360167 36.04166547 7.36430436 38.01692724 7.36328125 39.9921875 C7.372491 40.9194162 7.38170074 41.8466449 7.39118958 42.80197144 C7.35621569 47.69169932 7.19985493 51.03994241 4 55 C0.1438278 58.38875739 -3.6876704 58.51320127 -8.625 58.3515625 C-12.08089231 57.83999949 -13.73468427 56.61927131 -16 54 C-18.48605563 49.36038702 -18.30624758 44.84876789 -18.30078125 39.71875 C-18.30506638 38.82764526 -18.3093515 37.93654053 -18.31376648 37.01843262 C-18.31949569 35.1390874 -18.32002045 33.25972002 -18.31567383 31.38037109 C-18.3125107 28.50970613 -18.3360013 25.64006917 -18.36132812 22.76953125 C-18.36360099 20.94010546 -18.36430467 19.11067691 -18.36328125 17.28125 C-18.372491 16.42591675 -18.38170074 15.5705835 -18.39118958 14.68933105 C-18.35447804 9.94870615 -18.03546996 6.87203878 -15 3 C-10.64052983 -1.22122059 -5.72884292 -0.63748252 0 0 Z " fill="#FDFDFE" transform="translate(271,256)"/>
<path d="M0 0 C1.08667969 0.02707031 2.17335937 0.05414063 3.29296875 0.08203125 C4.54013672 0.13423828 4.54013672 0.13423828 5.8125 0.1875 C6.3075 2.1675 6.3075 2.1675 6.8125 4.1875 C7.4725 4.1875 8.1325 4.1875 8.8125 4.1875 C10.8125 8.1875 12.8125 12.1875 14.8125 16.1875 C15.37324219 17.26773438 15.93398437 18.34796875 16.51171875 19.4609375 C17.8125 22.1875 17.8125 22.1875 17.8125 24.1875 C18.4725 24.1875 19.1325 24.1875 19.8125 24.1875 C20.15023437 24.87457031 20.48796875 25.56164062 20.8359375 26.26953125 C21.28195313 27.17058594 21.72796875 28.07164062 22.1875 29 C22.62835938 29.89332031 23.06921875 30.78664063 23.5234375 31.70703125 C24.83116905 34.33306381 24.83116905 34.33306381 26.8125 37.1875 C26.8125 38.1775 26.8125 39.1675 26.8125 40.1875 C17.8125 39.1875 17.8125 39.1875 15.94482422 38.93579102 C9.23326426 38.08208059 2.57191355 38.00387581 -4.1875 38 C-5.3115625 37.98775391 -6.435625 37.97550781 -7.59375 37.96289062 C-14.13420124 37.95142955 -19.8584642 38.54687904 -26.1875 40.1875 C-26.8475 40.1875 -27.5075 40.1875 -28.1875 40.1875 C-27.67545378 35.70709559 -25.96790092 33.6419375 -23.1875 30.1875 C-21.93193113 27.00828213 -21.93193113 27.00828213 -21.1875 24.1875 C-20.5275 24.1875 -19.8675 24.1875 -19.1875 24.1875 C-19.09339844 23.48753906 -18.99929687 22.78757813 -18.90234375 22.06640625 C-18.04975171 18.63274321 -16.58612503 16.14449043 -14.75 13.125 C-12.31247965 9.1392902 -12.31247965 9.1392902 -10.15234375 5.00390625 C-7.58673658 0.17391704 -5.38771297 -0.17379719 0 0 Z " fill="#3B4256" transform="translate(173.1875,228.8125)"/>
<path d="M0 0 C2.97 0 5.94 0 9 0 C9.4297203 4.34139409 9.85689555 8.68302888 10.28173828 13.02490234 C10.42655033 14.50120774 10.57205146 15.97744571 10.71826172 17.45361328 C10.92858185 19.57827585 11.1364037 21.70317041 11.34375 23.828125 C11.46943359 25.1059082 11.59511719 26.38369141 11.72460938 27.70019531 C12 31 12 31 12 35 C9.36 35 6.72 35 4 35 C2.85017398 30.90996141 2.88905744 26.96822949 2.9375 22.75 C2.94201172 22.00492188 2.94652344 21.25984375 2.95117188 20.4921875 C2.96290754 18.6614236 2.9808415 16.83070127 3 15 C2.34 15 1.68 15 1 15 C0.87753906 15.68449219 0.75507813 16.36898437 0.62890625 17.07421875 C-0.08424597 20.39192689 -1.04853865 23.57436537 -2.0625 26.8125 C-2.42472656 27.97394531 -2.78695313 29.13539063 -3.16015625 30.33203125 C-3.43730469 31.21246094 -3.71445312 32.09289062 -4 33 C-6.475 33.495 -6.475 33.495 -9 34 C-9.82065069 32.12855305 -10.6311584 30.25265664 -11.4375 28.375 C-12.11619141 26.80878906 -12.11619141 26.80878906 -12.80859375 25.2109375 C-13.95801705 22.11314749 -14.57311223 19.26789946 -15 16 C-15.66 16 -16.32 16 -17 16 C-16.98839844 16.95261719 -16.97679687 17.90523437 -16.96484375 18.88671875 C-16.95582031 20.14097656 -16.94679688 21.39523438 -16.9375 22.6875 C-16.92589844 23.92886719 -16.91429687 25.17023438 -16.90234375 26.44921875 C-16.98521327 29.46235454 -17.29160551 32.08275339 -18 35 C-20.64 35 -23.28 35 -26 35 C-26.23181842 27.33496683 -25.52375362 19.96553358 -24.5 12.375 C-24.35691406 11.27542969 -24.21382813 10.17585937 -24.06640625 9.04296875 C-23.71660766 6.36117955 -23.36104277 3.68029447 -23 1 C-20.36 1 -17.72 1 -15 1 C-11.69800644 6.9435884 -10.04481337 12.29119838 -9 19 C-8.01 19 -7.02 19 -6 19 C-5.88785156 18.32582031 -5.77570313 17.65164062 -5.66015625 16.95703125 C-4.87079499 13.42125328 -3.68500151 10.08056434 -2.4375 6.6875 C-2.20353516 6.04232422 -1.96957031 5.39714844 -1.72851562 4.73242188 C-1.15552993 3.15378781 -0.57820536 1.57672974 0 0 Z " fill="#F4F4F5" transform="translate(325,233)"/>
<path d="M0 0 C17.49 0 34.98 0 53 0 C53 17.16 53 34.32 53 52 C51.46060275 48.92120549 50.33491178 46.16844341 49.25 42.9375 C42.70051939 24.93837992 31.53222132 13.44306674 14.375 5.1875 C9.64159778 3.11706219 5.0776371 1.91563948 0 1 C0 0.67 0 0.34 0 0 Z " fill="#0E1488" transform="translate(480,0)"/>
<path d="M0 0 C17.49 0 34.98 0 53 0 C53 0.33 53 0.66 53 1 C52.30777344 1.12375 51.61554687 1.2475 50.90234375 1.375 C34.77042312 4.77566838 20.33958974 13.556294 11.125 27.4375 C6.52179431 35.2530147 2.8473045 43.09935102 1 52 C0.67 52 0.34 52 0 52 C0 34.84 0 17.68 0 0 Z " fill="#8419D6" transform="translate(0,0)"/>
<path d="M0 0 C1.75540796 3.51081591 2.88340721 6.71427151 4.0625 10.4375 C9.95638119 27.01619505 21.59162609 38.59495445 37.21484375 46.3359375 C42.27449818 48.67714578 47.5232012 50.02090748 53 51 C53 51.33 53 51.66 53 52 C35.51 52 18.02 52 0 52 C0 34.84 0 17.68 0 0 Z " fill="#71308B" transform="translate(0,481)"/>
<path d="M0 0 C0.33 0 0.66 0 1 0 C1 17.16 1 34.32 1 52 C-16.49 52 -33.98 52 -52 52 C-52 51.67 -52 51.34 -52 51 C-51.27296875 50.85304688 -50.5459375 50.70609375 -49.796875 50.5546875 C-34.200779 47.07555839 -20.49727889 39.06750903 -11 26 C-5.91472947 17.96159647 -2.17231373 9.26997246 0 0 Z " fill="#431CCB" transform="translate(532,481)"/>
<path d="M0 0 C2.97 0 5.94 0 9 0 C10.40973577 4.17960902 11.81545201 8.3605421 13.2175293 12.54272461 C13.69462792 13.96398991 14.17280504 15.38489366 14.65209961 16.80541992 C15.34255238 18.85240089 16.02906076 20.90066929 16.71484375 22.94921875 C17.12855225 24.17987061 17.54226074 25.41052246 17.96850586 26.6784668 C18.83095554 29.45565683 19.50376138 32.13891132 20 35 C17.36 35 14.72 35 12 35 C11.67 33.02 11.34 31.04 11 29 C4.565 29.495 4.565 29.495 -2 30 C-2.99 32.475 -2.99 32.475 -4 35 C-6.64 35 -9.28 35 -12 35 C-10.24331739 27.70558458 -7.91018347 20.63898427 -5.4375 13.5625 C-5.13255615 12.68625977 -4.8276123 11.81001953 -4.51342773 10.90722656 C-3.17427251 7.11289237 -1.80663158 3.61326315 0 0 Z " fill="#F0F0F1" transform="translate(357,233)"/>
<path d="M0 0 C3.44944257 -0.48225216 6.57239503 -0.70121995 10 0 C12.41945128 2.3290542 13.80779809 4.87517606 15 8 C15 8.66 15 9.32 15 10 C18.7045951 6.52224881 18.7045951 6.52224881 21.25 2.1875 C23 0 23 0 25.18359375 -0.3125 C27.4764677 -0.3125 29.71792248 -0.21529033 32 0 C29.84524932 4.77942038 26.5708892 8.81797696 23.484375 13.02734375 C21.70005922 15.83662073 21.70005922 15.83662073 22.5078125 18.4921875 C24.28011679 21.4707722 26.15016632 24.33850159 28.125 27.1875 C32 32.77935943 32 32.77935943 32 35 C28.84005495 35.56879011 26.13414169 35.7797133 23 35 C20.40155657 32.30706772 18.6833009 29.32699471 17 26 C13.92656658 26.65648524 13.92656658 26.65648524 12.9296875 28.84765625 C12.40761719 29.94400391 12.40761719 29.94400391 11.875 31.0625 C10.60546875 33.25390625 10.60546875 33.25390625 9 35 C5.89769513 35.7038843 3.12598276 35.49035024 0 35 C2.15613643 30.2428101 5.37325481 26.19046487 8.41796875 21.97265625 C10.18987128 19.19452399 10.18987128 19.19452399 10.0234375 16.5078125 C8.67121399 13.19434878 6.66524966 10.57245325 4.4375 7.8125 C0 2.24374052 0 2.24374052 0 0 Z " fill="#F3F4F5" transform="translate(384,233)"/>
<path d="M0 0 C2.65016543 2.22271939 2.94940209 3.6458146 3.4375 7.0625 C3 10 3 10 1.375 11.875 C-1.70693454 13.33486373 -3.62526031 13.49214954 -7 13 C-9.4375 11.4375 -9.4375 11.4375 -11 9 C-10.9375 5.375 -10.9375 5.375 -10 2 C-6.29584707 -0.46943529 -4.37855495 -0.46913089 0 0 Z " fill="#444B5E" transform="translate(137,275)"/>
<path d="M0 0 C2.4375 1.5625 2.4375 1.5625 4 4 C3.9375 7.625 3.9375 7.625 3 11 C-0.28337691 13.18891794 -1.19558901 13.45290607 -5 13 C-7.8125 11.875 -7.8125 11.875 -10 10 C-10.5625 7.0625 -10.5625 7.0625 -10 4 C-7.21921757 -0.06422047 -4.81255755 -0.80209293 0 0 Z " fill="#42485C" transform="translate(215,275)"/>
<path d="M0 0 C1.9375 1.0625 1.9375 1.0625 3 3 C3.36528977 6.4093712 3.6140629 8.88023824 1.9375 11.9375 C-1.11976176 13.6140629 -3.5906288 13.36528977 -7 13 C-8.9375 11.9375 -8.9375 11.9375 -10 10 C-10.36528977 6.5906288 -10.6140629 4.11976176 -8.9375 1.0625 C-5.88023824 -0.6140629 -3.4093712 -0.36528977 0 0 Z " fill="#3B4256" transform="translate(176,211)"/>
<path d="M0 0 C-1.612328 4.03082 -4.46234596 6.75944137 -7.5 9.75 C-7.99886719 10.25660156 -8.49773437 10.76320312 -9.01171875 11.28515625 C-12.74658861 15 -12.74658861 15 -15 15 C-12.87676642 9.98144789 -6.12068814 0 0 0 Z " fill="#202531" transform="translate(317,199)"/>
<path d="M0 0 C-1.612328 4.03082 -4.46234596 6.75944137 -7.5 9.75 C-7.99886719 10.25660156 -8.49773437 10.76320312 -9.01171875 11.28515625 C-12.74658861 15 -12.74658861 15 -15 15 C-12.87676642 9.98144789 -6.12068814 0 0 0 Z " fill="#202431" transform="translate(132,200)"/>
<path d="M0 0 C2.95183101 2.95183101 3.08663988 5.95511947 4 10 C1.69 10 -0.62 10 -3 10 C-2.69201674 8.51988629 -2.378482 7.04092675 -2.0625 5.5625 C-1.88847656 4.73878906 -1.71445312 3.91507813 -1.53515625 3.06640625 C-1 1 -1 1 0 0 Z " fill="#1D1B27" transform="translate(361,245)"/>
<path d="M0 0 C2.1640625 -0.29296875 2.1640625 -0.29296875 4.625 -0.1875 C5.44226563 -0.16042969 6.25953125 -0.13335937 7.1015625 -0.10546875 C8.04128906 -0.05326172 8.04128906 -0.05326172 9 0 C8.67 0.99 8.34 1.98 8 3 C4.66666667 3 1.33333333 3 -2 3 C-1.34 2.01 -0.68 1.02 0 0 Z " fill="#C2C4CA" transform="translate(407,233)"/>
<path d="M0 0 C0 0.33 0 0.66 0 1 C-0.94875 1.28875 -1.8975 1.5775 -2.875 1.875 C-6.05211578 2.76825109 -6.05211578 2.76825109 -8 5 C-8.64767793 7.57061311 -8.64767793 7.57061311 -9 10 C-9.33 10 -9.66 10 -10 10 C-10.35915493 3.65492958 -10.35915493 3.65492958 -8.9375 1.0625 C-5.98831309 -0.55479605 -3.29132441 -0.18630138 0 0 Z " fill="#656A7A" transform="translate(176,211)"/>
<path d="M0 0 C0.66 0 1.32 0 2 0 C2.66 2.64 3.32 5.28 4 8 C2.68 8 1.36 8 0 8 C0 5.36 0 2.72 0 0 Z " fill="#505567" transform="translate(308,249)"/>
<path d="M0 0 C0.66 0 1.32 0 2 0 C2.33 1.65 2.66 3.3 3 5 C0.69 5 -1.62 5 -4 5 C-3.67 4.01 -3.34 3.02 -3 2 C-3 2.66 -3 3.32 -3 4 C-2.01 4 -1.02 4 0 4 C0 2.68 0 1.36 0 0 Z " fill="#2F2E39" transform="translate(362,250)"/>
<path d="M0 0 C0.66 0 1.32 0 2 0 C2 2.31 2 4.62 2 7 C1.01 7 0.02 7 -1 7 C-1.33 6.34 -1.66 5.68 -2 5 C-1.0625 2.375 -1.0625 2.375 0 0 Z " fill="#747886" transform="translate(326,248)"/>
</svg>
